<?xml version="1.0" encoding="UTF-8"?>
<svg width="32px" height="32px" viewBox="0 0 32 32" version="1.1" xmlns="http://www.w3.org/2000/svg" xmlns:xlink="http://www.w3.org/1999/xlink">
    <!-- Generator: Sketch 39.1 (31720) - http://www.bohemiancoding.com/sketch -->
    <title>Artboard</title>
    <desc>Created with Sketch.</desc>
    <defs></defs>
    <g id="Page-1" stroke="none" stroke-width="1" fill="none" fill-rule="evenodd">
        <g id="Artboard" fill="#FFFFFF">
            <path d="M23.1593316,16.98 C23.1993316,16.66 23.2293316,16.34 23.2293316,16 C23.2293316,15.66 23.1993316,15.34 23.1593316,15.02 L25.2693316,13.37 C25.4593316,13.22 25.5093316,12.95 25.3893316,12.73 L23.3893316,9.27 C23.2693316,9.05 22.9993316,8.97 22.7793316,9.05 L20.2893316,10.05 C19.7693316,9.65 19.2093316,9.32 18.5993316,9.07 L18.2193316,6.42 C18.1893316,6.18 17.9793316,6 17.7293316,6 L13.7293316,6 C13.4793316,6 13.2693316,6.18 13.2393316,6.42 L12.8593316,9.07 C12.2493316,9.32 11.6893316,9.66 11.1693316,10.05 L8.6793316,9.05 C8.4493316,8.96 8.1893316,9.05 8.0693316,9.27 L6.0693316,12.73 C5.9393316,12.95 5.9993316,13.22 6.1893316,13.37 L8.2993316,15.02 C8.2593316,15.34 8.2293316,15.67 8.2293316,16 C8.2293316,16.33 8.2593316,16.66 8.2993316,16.98 L6.1893316,18.63 C5.9993316,18.78 5.9493316,19.05 6.0693316,19.27 L8.0693316,22.73 C8.1893316,22.95 8.4593316,23.03 8.6793316,22.95 L11.1693316,21.95 C11.6893316,22.35 12.2493316,22.68 12.8593316,22.93 L13.2393316,25.58 C13.2693316,25.82 13.4793316,26 13.7293316,26 L17.7293316,26 C17.9793316,26 18.1893316,25.82 18.2193316,25.58 L18.5993316,22.93 C19.2093316,22.68 19.7693316,22.34 20.2893316,21.95 L22.7793316,22.95 C23.0093316,23.04 23.2693316,22.95 23.3893316,22.73 L25.3893316,19.27 C25.5093316,19.05 25.4593316,18.78 25.2693316,18.63 L23.1593316,16.98 L23.1593316,16.98 Z M15.7293316,19.5 C13.7993316,19.5 12.2293316,17.93 12.2293316,16 C12.2293316,14.07 13.7993316,12.5 15.7293316,12.5 C17.6593316,12.5 19.2293316,14.07 19.2293316,16 C19.2293316,17.93 17.6593316,19.5 15.7293316,19.5 L15.7293316,19.5 Z" id="Shape"></path>
        </g>
    </g>
</svg>